<mxfile host="app.diagrams.net" modified="2023-02-05T20:21:06.367Z" agent="5.0 (Macintosh; Intel Mac OS X 10_15_7) AppleWebKit/537.36 (KHTML, like Gecko) Chrome/109.0.0.0 Safari/537.36 Edg/109.0.1518.70" etag="fpdhHfwxdYb0-FtBUZWE" version="20.8.13" type="github">
  <diagram id="FjATullBT0cEjz_zvwCX" name="Page-1">
    <mxGraphModel dx="3774" dy="2263" grid="1" gridSize="10" guides="1" tooltips="1" connect="1" arrows="1" fold="1" page="1" pageScale="1" pageWidth="850" pageHeight="1100" math="0" shadow="0">
      <root>
        <mxCell id="0" />
        <mxCell id="1" parent="0" />
        <mxCell id="EN6WmcxhhZj-_kziTeJi-59" value="AWS Cloud" style="sketch=0;outlineConnect=0;html=1;whiteSpace=wrap;fontSize=12;fontStyle=0;shape=mxgraph.aws4.group;grIcon=mxgraph.aws4.group_aws_cloud;strokeColor=#006EAF;fillColor=#E1E6E3;verticalAlign=top;align=left;spacingLeft=30;fontColor=#ffffff;dashed=0;rounded=0;shadow=0;" parent="1" vertex="1">
          <mxGeometry x="-1450" y="110" width="1340" height="730" as="geometry" />
        </mxCell>
        <mxCell id="EN6WmcxhhZj-_kziTeJi-1" value="Transit Gateway" style="sketch=0;points=[[0,0,0],[0.25,0,0],[0.5,0,0],[0.75,0,0],[1,0,0],[0,1,0],[0.25,1,0],[0.5,1,0],[0.75,1,0],[1,1,0],[0,0.25,0],[0,0.5,0],[0,0.75,0],[1,0.25,0],[1,0.5,0],[1,0.75,0]];outlineConnect=0;fontColor=#232F3E;gradientColor=#945DF2;gradientDirection=north;fillColor=#5A30B5;strokeColor=#ffffff;dashed=0;verticalLabelPosition=bottom;verticalAlign=top;align=center;html=1;fontSize=12;fontStyle=0;aspect=fixed;shape=mxgraph.aws4.resourceIcon;resIcon=mxgraph.aws4.transit_gateway;" parent="1" vertex="1">
          <mxGeometry x="-800" y="480" width="70" height="70" as="geometry" />
        </mxCell>
        <mxCell id="EN6WmcxhhZj-_kziTeJi-2" value="" style="whiteSpace=wrap;html=1;aspect=fixed;strokeColor=#36393d;strokeWidth=0;fillColor=#EEE0E0;" parent="1" vertex="1">
          <mxGeometry x="-1320" y="200" width="280" height="280" as="geometry" />
        </mxCell>
        <mxCell id="EN6WmcxhhZj-_kziTeJi-3" value="DMI Production Account" style="sketch=0;outlineConnect=0;fontColor=#000000;fillColor=#d80073;strokeColor=#A50040;dashed=0;verticalLabelPosition=bottom;verticalAlign=top;align=right;html=1;fontSize=12;fontStyle=0;aspect=fixed;pointerEvents=1;shape=mxgraph.aws4.organizations_management_account2;" parent="1" vertex="1">
          <mxGeometry x="-1080" y="200" width="40" height="40" as="geometry" />
        </mxCell>
        <mxCell id="EN6WmcxhhZj-_kziTeJi-10" style="edgeStyle=orthogonalEdgeStyle;rounded=0;orthogonalLoop=1;jettySize=auto;html=1;fontColor=#000000;" parent="1" source="EN6WmcxhhZj-_kziTeJi-5" target="EN6WmcxhhZj-_kziTeJi-1" edge="1">
          <mxGeometry relative="1" as="geometry">
            <Array as="points">
              <mxPoint x="-870" y="345" />
              <mxPoint x="-870" y="500" />
            </Array>
          </mxGeometry>
        </mxCell>
        <mxCell id="EN6WmcxhhZj-_kziTeJi-5" value="Production DMI VPC" style="whiteSpace=wrap;html=1;aspect=fixed;strokeColor=#7F00FF;verticalAlign=bottom;" parent="1" vertex="1">
          <mxGeometry x="-1270" y="270" width="150" height="150" as="geometry" />
        </mxCell>
        <mxCell id="EN6WmcxhhZj-_kziTeJi-9" value="" style="sketch=0;points=[[0,0,0],[0.25,0,0],[0.5,0,0],[0.75,0,0],[1,0,0],[0,1,0],[0.25,1,0],[0.5,1,0],[0.75,1,0],[1,1,0],[0,0.25,0],[0,0.5,0],[0,0.75,0],[1,0.25,0],[1,0.5,0],[1,0.75,0]];outlineConnect=0;fontColor=#232F3E;gradientColor=#945DF2;gradientDirection=north;fillColor=#5A30B5;strokeColor=#ffffff;dashed=0;verticalLabelPosition=bottom;verticalAlign=top;align=center;html=1;fontSize=12;fontStyle=0;aspect=fixed;shape=mxgraph.aws4.resourceIcon;resIcon=mxgraph.aws4.vpc;" parent="1" vertex="1">
          <mxGeometry x="-1270" y="270" width="50" height="50" as="geometry" />
        </mxCell>
        <mxCell id="EN6WmcxhhZj-_kziTeJi-11" value="" style="whiteSpace=wrap;html=1;aspect=fixed;strokeColor=#36393d;strokeWidth=0;fillColor=#E8FFEB;" parent="1" vertex="1">
          <mxGeometry x="-1310" y="530" width="280" height="280" as="geometry" />
        </mxCell>
        <mxCell id="EN6WmcxhhZj-_kziTeJi-12" value="DMI Non Prod Account" style="sketch=0;outlineConnect=0;fontColor=#000000;fillColor=#d80073;strokeColor=#A50040;dashed=0;verticalLabelPosition=bottom;verticalAlign=top;align=right;html=1;fontSize=12;fontStyle=0;aspect=fixed;pointerEvents=1;shape=mxgraph.aws4.organizations_management_account2;" parent="1" vertex="1">
          <mxGeometry x="-1070" y="530" width="40" height="40" as="geometry" />
        </mxCell>
        <mxCell id="EN6WmcxhhZj-_kziTeJi-16" style="edgeStyle=orthogonalEdgeStyle;rounded=0;orthogonalLoop=1;jettySize=auto;html=1;fontColor=#000000;" parent="1" source="EN6WmcxhhZj-_kziTeJi-13" target="EN6WmcxhhZj-_kziTeJi-1" edge="1">
          <mxGeometry relative="1" as="geometry">
            <Array as="points">
              <mxPoint x="-870" y="675" />
              <mxPoint x="-870" y="540" />
            </Array>
          </mxGeometry>
        </mxCell>
        <mxCell id="EN6WmcxhhZj-_kziTeJi-13" value="Non Production DMI VPC" style="whiteSpace=wrap;html=1;aspect=fixed;strokeColor=#7F00FF;verticalAlign=bottom;" parent="1" vertex="1">
          <mxGeometry x="-1260" y="600" width="150" height="150" as="geometry" />
        </mxCell>
        <mxCell id="EN6WmcxhhZj-_kziTeJi-15" value="" style="sketch=0;points=[[0,0,0],[0.25,0,0],[0.5,0,0],[0.75,0,0],[1,0,0],[0,1,0],[0.25,1,0],[0.5,1,0],[0.75,1,0],[1,1,0],[0,0.25,0],[0,0.5,0],[0,0.75,0],[1,0.25,0],[1,0.5,0],[1,0.75,0]];outlineConnect=0;fontColor=#232F3E;gradientColor=#945DF2;gradientDirection=north;fillColor=#5A30B5;strokeColor=#ffffff;dashed=0;verticalLabelPosition=bottom;verticalAlign=top;align=center;html=1;fontSize=12;fontStyle=0;aspect=fixed;shape=mxgraph.aws4.resourceIcon;resIcon=mxgraph.aws4.vpc;" parent="1" vertex="1">
          <mxGeometry x="-1260" y="600" width="50" height="50" as="geometry" />
        </mxCell>
        <mxCell id="EN6WmcxhhZj-_kziTeJi-42" style="edgeStyle=orthogonalEdgeStyle;rounded=0;orthogonalLoop=1;jettySize=auto;html=1;entryX=1;entryY=0.25;entryDx=0;entryDy=0;entryPerimeter=0;fontColor=#000000;" parent="1" source="EN6WmcxhhZj-_kziTeJi-19" target="EN6WmcxhhZj-_kziTeJi-1" edge="1">
          <mxGeometry relative="1" as="geometry" />
        </mxCell>
        <mxCell id="EN6WmcxhhZj-_kziTeJi-19" value="Production Kafka Cluster" style="whiteSpace=wrap;html=1;aspect=fixed;strokeColor=#7F00FF;fillColor=#EEE0E0;verticalAlign=bottom;" parent="1" vertex="1">
          <mxGeometry x="-540" y="340" width="180" height="180" as="geometry" />
        </mxCell>
        <mxCell id="EN6WmcxhhZj-_kziTeJi-21" value="" style="sketch=0;points=[[0,0,0],[0.25,0,0],[0.5,0,0],[0.75,0,0],[1,0,0],[0,1,0],[0.25,1,0],[0.5,1,0],[0.75,1,0],[1,1,0],[0,0.25,0],[0,0.5,0],[0,0.75,0],[1,0.25,0],[1,0.5,0],[1,0.75,0]];outlineConnect=0;fontColor=#232F3E;gradientColor=#945DF2;gradientDirection=north;fillColor=#5A30B5;strokeColor=#ffffff;dashed=0;verticalLabelPosition=bottom;verticalAlign=top;align=center;html=1;fontSize=12;fontStyle=0;aspect=fixed;shape=mxgraph.aws4.resourceIcon;resIcon=mxgraph.aws4.vpc;" parent="1" vertex="1">
          <mxGeometry x="-410" y="340" width="50" height="50" as="geometry" />
        </mxCell>
        <mxCell id="EN6WmcxhhZj-_kziTeJi-43" style="edgeStyle=orthogonalEdgeStyle;rounded=0;orthogonalLoop=1;jettySize=auto;html=1;entryX=1;entryY=0.75;entryDx=0;entryDy=0;entryPerimeter=0;fontColor=#000000;" parent="1" source="EN6WmcxhhZj-_kziTeJi-33" target="EN6WmcxhhZj-_kziTeJi-1" edge="1">
          <mxGeometry relative="1" as="geometry" />
        </mxCell>
        <mxCell id="EN6WmcxhhZj-_kziTeJi-33" value="Non Production Kafka Cluster" style="whiteSpace=wrap;html=1;aspect=fixed;strokeColor=#7F00FF;fillColor=#E8FFEB;verticalAlign=bottom;" parent="1" vertex="1">
          <mxGeometry x="-540" y="585" width="180" height="180" as="geometry" />
        </mxCell>
        <mxCell id="EN6WmcxhhZj-_kziTeJi-34" value="" style="sketch=0;points=[[0,0,0],[0.25,0,0],[0.5,0,0],[0.75,0,0],[1,0,0],[0,1,0],[0.25,1,0],[0.5,1,0],[0.75,1,0],[1,1,0],[0,0.25,0],[0,0.5,0],[0,0.75,0],[1,0.25,0],[1,0.5,0],[1,0.75,0]];outlineConnect=0;fontColor=#232F3E;gradientColor=#945DF2;gradientDirection=north;fillColor=#5A30B5;strokeColor=#ffffff;dashed=0;verticalLabelPosition=bottom;verticalAlign=top;align=center;html=1;fontSize=12;fontStyle=0;aspect=fixed;shape=mxgraph.aws4.resourceIcon;resIcon=mxgraph.aws4.vpc;" parent="1" vertex="1">
          <mxGeometry x="-410" y="585" width="50" height="50" as="geometry" />
        </mxCell>
        <mxCell id="EN6WmcxhhZj-_kziTeJi-35" value="" style="shape=image;verticalLabelPosition=bottom;labelBackgroundColor=default;verticalAlign=top;aspect=fixed;imageAspect=0;image=data:image/png,iVBORw0KGgoAAAANSUhEUgAAALAAAAEeCAMAAAAdCG9GAAAAkFBMVEX///8jHyAAAAAgHB0dGBkbFhcIAAARCgxMSkofGhsXEhMUDhDv7u5RTk8GAADq6eoMAAWqqan09PTZ2dmfnp7j4+OAf392dXWYl5czMDHr6+spJSY6NzizsrLR0dHAv79DQEFYVleKiYlvbW6+vb1kYmPJycl8enuvrq6Qjo9gXl6dnJxAPT4tKSqmpaY1MjMbeUWzAAARP0lEQVR4nOVdaXfiuhIcJC/YBmLMmmEJYCDATcj//3fPLEkIqpZa3sicV1/unXMiu5ClVqur1frzh4nBS394WLw3GpPpcjSe9bjtHoJklnpC+KEjGxmkE/rZP9v9waN5EVgvRSc8U/0BxxfP/eTR5FT0Q+EqZK8IYjH6Zd3cF57at7eIRNp6NMlvbIOOnu6F8vjRPD+RisBI94TO868YFz03YtHNEIj+o9n++dMV5tHwDbF5NN+VsKCbwV881sKNLPk2GuH7Ixnb82003MnjGNuOh2sfTx/Ft5uLb2aRl4/h28vJN7MV+4cQjnjLBWS8fQDfDXu9UCH9+vm+5B4QJ0Sj2gm79AKXecBnxMA7/oSoeysy9ggmgSfa45feYNDbHtMO6SM7b/XyTYgBIcXz7nZd2B4oyuKlVsLjGLLw3fX9Xw7a+LcF9S4fMRydAk6lHfbnxLxGvjPYa6KL/3oQOeCvwzo9zTZiIJTh8ImWi9YYUZ8T9Bd1sNjRDZ7QqPA0DUpGF9g0X7sUbMFPdOvzgQ6qqQqkvskrWMhFPWwzgO4ymdUEDIraXCDgV5oXrrGvjqK6AhWzjtpZM1MjsDa6dRm2ldpZjOG4Ce8byUn1XC+vVuYcZxFA36V6rme8KctAfDS3GqhjQjxVT/YE8GbOfAfNanKKwZs5Ub5nxbDVZdcAYU7sV3VAHkiY48f8KsJ/Gc2av4kwZ/b46hiuyYdvqG8mXeFvgKWONVdLgDoYo5W51Tzn0C8BI8VVlM/mVnt1Qfeq53pGX90yMz7uRFkfnWYNZE8A24doaGoERoS5UUloIQfeNBzb6i6lY/RJy4K6yBqje2hTV5eRgA6xyaYG6m+UjZrowvHYkJFuUKBgMscWlgV10co2PJptHVRv6oxVoTHRiEgrtUd8g/pGBNw9NE6aIZ5FKfzruFbdeQmjvoEAW6X5BH2OHOtyMu8OD9NICNF5b47Gaysbg6bdmcXznRvU2xDiuW835eb7qRBx5F6sTeCEvhDeaM3/0WAduHayu/+aTIPjQiib+xwdPNiHwlcDoDIUYsN1qWlVUWa//fmQjjaLrEtQWPaMmK8tzg8CWaULQtEgotL3UF22W9JuGIYk2fMfcOn22nTy0xlBJ+LFbRlpPjTYm6NXA93zrxcfnB1PEWXRT3l0tzG2MPcIBMfxG1JSnfn5zKDakJ+eEz8zokgLygKYwHPTkoVNjzgM4S+BWguDL0tTfAos+wOtWvfPtMqo+nowyw4NhM7K4AebTeWAmWL347EsH2KQpy8YuYcD32x17h7K6t+Wl2u0MUZF65lneK4ImJr4u/V4uDJm2PeNhT2OAp6LtbHqhRtITpSvy1iMrk9jqjDH/GuSw0kSeGqyZojPicCdgLcHTHgsr2oWGj2LkLV6nrGwncg/wAweHH2dhctczpQtwODchstzIu+STuTTk9JZcN/zRrmtoeisOBHvK0jnN/N9X2fzwdNT72XcFDjHpMGL/V7Q27+L+zjhyZ1PrdJ7/iM8iFC83jqRrWODmDlWeuXT8Sdj+d63jT5gGhIk/e+I/Re/i/8ogUKnbUn3T1cVTDO4HloRkiUc7lb5T09FCT+juRtOiS0rDNFYxZSKEoab25COgvXR30ev9RFegb2tdoOCw3b1EQZhWcNS0AYzz0IALEgYrcoGnxFlVVpEcgsSBvlagUmh6oM2H3URHqnf12xVwdLID4QVJPyuvFs6xkYg/4lv2AoSVsejz9lZKq08tkBVjDBKs2H0lapq8TPMihEG4hjHpA4V4x2yl45ihNcK4YCTer5T7ITDTokrRli1aiEnbKh+mID93oKEFdmd9W1VASNY1EP4qBBmCeiqxyRrIgyGBOeEitrDkp3ZUIywmu7IyopW56pzqIewOntkzGimLnUuM8SvpMdbEgbuOyf2pGaM8921ux4O7LJkQOoIJwsELOiM7NXsdbPh9L5tIGTa5YusquPFGMRAHmJ48IPxhxDoTKAMPREOmVsAoGGbc3ZzNEq6U6StfpOORLTi9DPwFI07SjDwpd4D+TsU5oC59MXS7HjlSQ1Sczr1GeN/R4J52NIVCyNlQNgQ3UNnf3WHcFakXg/giKW2uxKYJODpbBQMJtO2cO1ZBvddoXn7mgqW0UJOCx3jJFMOk0MOcSpuUOMiJZ9GMm41UKC4Q4yIrZdLu5VYAJxLzccivsvcg4Ftwkbsc+mg5we21V244WneGxj8K9yGcEkPBaST0L17/dPUJIQ7SiGbY0R8EjjlkmleKe2M4OdmuMsRlkPR/Frkk+0rWfcGrjTJJG/qwRXyRhIl4tIqHE+IxSZNl4HQ2H4U9WkFhZSpy3M/Gb/YWPKG44ah5tQ6Ft+TSXG+Xx7VKPfchXBQHHBacDxccTpM0WsUmgvgocCaLAsUariF9FrjcrsXB5PzVUZBkKLk7oXpWsUKS/Dg+vl+SbgAE67sjwiQrYTjPN0CK/Isy5lwGjjncZhj4LkS8NVI7VcEn4q7XnQn4X1c5rl1H0eoRpNpQGQbocnrbv731LTVW++bomPHWX77ZUSZBwodGAIZaidDtqcf35nBZNa0Wcii8MbHmMf8lhLnj2iTW6T4gIJPb8POmbtLCmI7GZljhFMc1MPUN23oGE3vjfViVz1/vmNtcKU4YJlL18FUmwv6jPEomuAobDIyjigpJlSYRpOVbcrJ60UGfykQ/+GWg422lx0hyT09VSvn9CONoajkWdtTMXEG5Ex5KIhuDnzR1Ail4ODfFSzh8ZnuY2KOf2O9yYz6Tzc4iDri494o/YSqq37yZYX6koCKZ8kG4wHz8eFcUsrzvM7pv2/DmSF0TJ6EYOSUnkHOWV40N0PS26533e7sZc7JgoMnpjJEbBGPWtdZ6qE91FOol+/Z4T+CsuOsk+e2oD6oudrIN9Bp0hMqKfmjCrqXz2lVJAscbj6BJdDaIiUii3ZlyHAXV1KST0Kjxj1D8gmU5tWo5AAuscz5xIJKgZgJVumSPBBW2LprwJnoRiU1itYwiZNTReAn8LSrYNb14Yvsj9cjnaiSgnx4ttgfr8dzoQIzkUJfK0elnghXECyd8AGrCfa10oEOmO9BBrShJ5GjY7A/Ub4hXpT1JUF65e8mjIrxVUG4WRZh7JOUT3iJx7B94Rt8rL98j1itCpezY97L+uUGvOIvaV9tivBJyub7Zw/niq2zRjlRFZQP3MGghH11UFSVtJIqo9hpsf+UoCppo5IaRU/leN7EPsBj1lywAX6Ty05yvIDYylZRkQbWHLYuBfmBgxtVVMAEKWUn2BxUImdCJXXByDouNmvHFHcw4+xDDhCEbSwSdb9ENUWVyMAYe5tERaoMmYd5oeZBfzLmzjvqwHJVleIowsE7r/2IiuBzD+IMXrr74ShNR6v+usfwlvBeIUPImuQaLZZRymI+bp/C734UhmEUxdn/v7+aCilRdiKb5QzGWu1YLLTDaj70VN06iIRo678NYZQyRNSx2C+86rVFICp+YfYhcGwgM+AdMdT8VHLanQ4eay1T0jRWlKFqOXRDfV2TSKT0bmVC65la5WrGKUERReA3b9/NGmpIZ8xqujgbyDHhcs0XvEQCqb6YTnj9gdildj70KD6/MOyrAZx1k18A5zO54/OX+tz8LfL70obi0i4W7eNNuO1pPRJW9Xqc20zh/2wyPDzilrPU9JvdzERON8P9fpU2fUoj1kAsP1+MSw3SL/ahF5ZwqpYFYeRnFt7JlX8Vdi7jcWlbu0tiF6r6tDUpTi522z5zjWA8KjubT4X/PjjkeYvE4eqPnFWOACjrHNiP/Us7D4WZW6XlBnbynFLQwoVaicG2sZGtE1uLTC8W8E0x2gWPDe/kPCRFcv8RsJSc9+6/W/jLz2eVNyca5HarOOP4a+/69Ma3uNL1Yy/z4jUeAlFr2pw0qscPZ5I4QKKw9UW42R933fHrVND+HyHFbXNU37t56E9fZR6avRwp3JscqmRGVhyl4g4DmTsVPlBvqTKWmfPD+y1Jb0l8GFLtzDvBoxA80eDjQ/fxJYZt6POK7Fp2t6Dq2rUWmrJlRN5LsoArOK3wMGvZ3cKPyYgyeUaC8BFOWCLGuuyLWUzmNyLo69pRp1B0EnwTLJV6xWTPP4wRioMh1AnzZ/VRfnQwSZ9kkOxNN6RfEImDOVkBlUXSZ6sgz8YobnXfyVDHFa4QnJPYYHsgTZoj+CqMGgbzoU8egjjFlDY88QbkvcSm3oKXV3BeNh8vhDo4so3oZPjCFWZB9of53aheFFcWmO/u0rz88dYm10TtLEbNEXRbDV+NuxOb7ERvcNskJ1VSLfLg8+8duPuodrk8OW/2UVMwQn5MvxBh1UiwVHO12o7F5YKFCKs6KUtpVX+nw5e2ChFWpX6Wblmkzk8xwg+opPR/1sOljeGgpjEM6q1xNMDHWYmcdlhdm+uywyDthZO3pZYdqWulQ76EedaBRK0O35coRli9M5XhrYFsTou85mKE1fqKDc/0dVHek0U+QzHCIAImTfcEgg62qZpWjDDaPRhukkOphjanLIoRRoPY4BKrd2rapeYXJPwfihnoNjyo2IXVzXcFCcMERNkhGW9QHMcqSasgYXwHF3mqtw3jTlbJf0UJY+ESl4uaO1DSsUuvLLQJPYE42xtP7qfeE5WbYJEF93c2Un5t3/IwDSVRSTE53nzqlw0lPrpcXzg5LkRHeYgbC2dlxXlKqUoyFpPRf7v17Lhq2msc9+ilAtcSO4spC4s0Y51uKUPfE5040ihlhtjhFYOlXh12xIRPWXuTnAnG2OEJycisHUjxxh4YhkioFpxM0BmvLKPDvlWmgJjNuUiOuvYRPG3C7ORcVX5OcMxbwEHDYsQBgY7ohHxZJIx7nGwFUV0VyVssck08s0WbWctegnm+Nk+JNPOGNY9E3mGGDLBmqAGj7km+DCvBqeOdgV3k5wLHPB7oy00NjJnuKjMr4QL/wzjfEl3FYT1jZsUEfvlDyflsSDTlMmZ6yS0qw+AOvsfogtzGPYO74BHOnM3IrLKGghOTLXSJHPNmyGvH6CmbBewLmhp3x4liz4t9XT1Nm63TUZJj2fFEylvu6dS1UIjm8Libdfcbn7632K4+wzYFFdBP5c/fjtwtGJUNH4n0xnz39h71PW3LEGxXb6eaflHoum4YZW68CNMd/2wxscQF4vX+Ux8J31NbSJxAb90fjjaHQ/o63lkpwsQdZw3/HXUbkWldQR0XGtjDJk9iwL+2uM6qOOD5enpDgc8pVnMmDQMRiDWLI/SSLEsaFQGyafrFCy2LldR7wkDn1AwrAVhnbMqIFQSobm9SIuDFc/YVYfIBxHBlaGoEoiMxt5BdUYAhHBudGdDFrCuEygC6D8687qgJUxWUT8JQrTDn5LeqYNdmidW+4shM6Aqh0qsRYahGgrUGAMI1mQnwZo4jowpq1ZxwV5Hz26ojKUdJmFzIl4UBClQ8kPA/18O/ewyrEf1fbiXKs8NVlGwF+OdWutJ8Cf6dv8Xwz3lr4N3SNTUCu5Ta/GEk/P3qHUdJe7oa9/n/3K75n4tL/HuRH4IB8Y13OLZWUTUiDFxa0X/+rdFLm/hwB8eHbSvLFUWD0OjuI/AxVUCjPiN8gVbjaK+Os5PGEWk0jhwB+GJYaPKEziqS56MLJr86uKYd/jdq0+lKQxEl1KnmeggDqHJvnA6uaavxEwnrrC3kW35dfRaqzpcoH/lKj3g1emn3wF6CgW/NS9xP2GcpUepjXXixzVur1UdDGDgWKXFSc/NybbCo1OPLmj0eArw72TLfs644hBFJyskf/qgpVslCr61PMQtEUMXVR0XQ24iYMBgyElPri0ZqQKs/FZ7iAzu+8Ie/Y64BDLppdK0I64ahfyoJ2x7/pqGL0JrP+qvhKH1djXfbWnfGP/A/hfYIwAMwkj0AAAAASUVORK5CYII=;" parent="1" vertex="1">
          <mxGeometry x="-470" y="650" width="30.77" height="50" as="geometry" />
        </mxCell>
        <mxCell id="EN6WmcxhhZj-_kziTeJi-40" style="edgeStyle=orthogonalEdgeStyle;rounded=0;orthogonalLoop=1;jettySize=auto;html=1;fontColor=#000000;" parent="1" source="EN6WmcxhhZj-_kziTeJi-36" target="EN6WmcxhhZj-_kziTeJi-1" edge="1">
          <mxGeometry relative="1" as="geometry" />
        </mxCell>
        <mxCell id="EN6WmcxhhZj-_kziTeJi-36" value="On-Premise" style="sketch=0;outlineConnect=0;gradientColor=none;html=1;whiteSpace=wrap;fontSize=12;fontStyle=0;shape=mxgraph.aws4.group;grIcon=mxgraph.aws4.group_on_premise;strokeColor=#AAB7B8;fillColor=#EEE0E0;verticalAlign=top;align=left;spacingLeft=30;fontColor=#AAB7B8;dashed=0;" parent="1" vertex="1">
          <mxGeometry x="-850" y="-60" width="170" height="150" as="geometry" />
        </mxCell>
        <mxCell id="EN6WmcxhhZj-_kziTeJi-37" value="Production On Premise Servers" style="sketch=0;pointerEvents=1;shadow=0;dashed=0;html=1;strokeColor=none;fillColor=#505050;labelPosition=center;verticalLabelPosition=bottom;verticalAlign=top;outlineConnect=0;align=center;shape=mxgraph.office.servers.datacenter;fontColor=#000000;" parent="1" vertex="1">
          <mxGeometry x="-791.5" y="-30" width="53" height="53" as="geometry" />
        </mxCell>
        <mxCell id="EN6WmcxhhZj-_kziTeJi-41" style="edgeStyle=orthogonalEdgeStyle;rounded=0;orthogonalLoop=1;jettySize=auto;html=1;fontColor=#000000;" parent="1" source="EN6WmcxhhZj-_kziTeJi-38" target="EN6WmcxhhZj-_kziTeJi-1" edge="1">
          <mxGeometry relative="1" as="geometry" />
        </mxCell>
        <mxCell id="EN6WmcxhhZj-_kziTeJi-38" value="On-Premise" style="sketch=0;outlineConnect=0;gradientColor=none;html=1;whiteSpace=wrap;fontSize=12;fontStyle=0;shape=mxgraph.aws4.group;grIcon=mxgraph.aws4.group_on_premise;strokeColor=#AAB7B8;fillColor=#E8FFEB;verticalAlign=top;align=left;spacingLeft=30;fontColor=#AAB7B8;dashed=0;" parent="1" vertex="1">
          <mxGeometry x="-850" y="850" width="170" height="150" as="geometry" />
        </mxCell>
        <mxCell id="EN6WmcxhhZj-_kziTeJi-39" value="Non Prod Onpremise" style="sketch=0;pointerEvents=1;shadow=0;dashed=0;html=1;strokeColor=none;fillColor=#505050;labelPosition=center;verticalLabelPosition=bottom;verticalAlign=top;outlineConnect=0;align=center;shape=mxgraph.office.servers.datacenter;fontColor=#000000;" parent="1" vertex="1">
          <mxGeometry x="-780" y="920" width="53" height="53" as="geometry" />
        </mxCell>
        <mxCell id="EN6WmcxhhZj-_kziTeJi-44" value="Production Route Table" style="sketch=0;outlineConnect=0;fontColor=#232F3E;gradientColor=none;fillColor=#4D27AA;strokeColor=none;dashed=0;verticalLabelPosition=bottom;verticalAlign=top;align=center;html=1;fontSize=12;fontStyle=0;aspect=fixed;pointerEvents=1;shape=mxgraph.aws4.route_table;" parent="1" vertex="1">
          <mxGeometry x="-738.5" y="370" width="78" height="76" as="geometry" />
        </mxCell>
        <mxCell id="EN6WmcxhhZj-_kziTeJi-45" value="Non PRoduction Route Table" style="outlineConnect=0;dashed=0;verticalLabelPosition=bottom;verticalAlign=top;align=center;html=1;shape=mxgraph.aws3.route_table;fillColor=#F58536;gradientColor=none;fontColor=#000000;strokeColor=#7F00FF;strokeWidth=0;" parent="1" vertex="1">
          <mxGeometry x="-750" y="575.5" width="75" height="69" as="geometry" />
        </mxCell>
        <mxCell id="EN6WmcxhhZj-_kziTeJi-53" value="" style="swimlane;startSize=0;fontColor=#ffffff;strokeColor=#050012;strokeWidth=1;fillColor=#6a00ff;swimlaneFillColor=none;gradientColor=none;rounded=0;shadow=0;swimlaneLine=1;sketch=0;" parent="1" vertex="1">
          <mxGeometry x="-620" y="280" width="460" height="540" as="geometry" />
        </mxCell>
        <mxCell id="EN6WmcxhhZj-_kziTeJi-22" value="" style="shape=image;verticalLabelPosition=bottom;labelBackgroundColor=default;verticalAlign=top;aspect=fixed;imageAspect=0;image=data:image/png,iVBORw0KGgoAAAANSUhEUgAAAQkAAAC+CAMAAAARDgovAAAArlBMVEX///8AdKPw8PDv7+/39/f5+fn19fX8/PwAcqIAb6AAbqAAbJ8Aap718/L08vEAZpurxtfK3OeNr8jj6/AZgq16rciXu88Heaf0+Pprm7thnr6zz97r8fRDjrORtswbfavV4eZSlbegxNcxhq/Y6PBPlblzpsLZ4+iwzt7t9PjB1d9IibCGs8w6gavP4uzQ3eOXscl9pcJgk7bB0d82fKhOha5ZnsCawtjE3Og8kbibSaZLAAAT30lEQVR4nO1da2OiutYGvJCQBLUoOOJdait19Oyz9zvT/f//2JsVQIOABQTK9DRfJnUSVvKQrFsWK4oiSkfjpS+qPVHvinoXqp2eqPdFXWquiap+2zXWXBd17bZrGykpLR/fNxLfSLQOiU7YK0EwfXydlPF18o2vNZSComtSL+0GP03qpUkEtYyuBZu3hZLSgRKBDiVCEUoEOpSQlKhndI1Az9m8ZZRkFL/Kli9DSftG4huJD5EoyJzD5nqCOetS1/TxtYuSpvRF0aH0RLUr1Xui3pXqUnM9o2vB5r1+tzFK9+akhCg2KwbMqP6yPp88z7MO/Q5jzPxMgRMh0eSWZ6w7Pb0eZztHNSiBQg3kLGbHoTetllKrtW3GXob7MSKGgZEqF4QwIWg38addZv4PIOFNdvQWgxgemNDF8cyY9olIdGRum2TO2g1z7hRgzmFX6zjm+yATBQmN3fLlIUol5qT0ROmKkqhn/Hy/nv6z3ncXgxwwhGAY9Pmdc/sylD6oZzVpijnrvx2SF4YQDLraXoXM17A7NGVqI6MQDOHCUO1ilFqubTNti0vgIIqxcr8OEl1/RUriAOuCLryGkKiXTzBmzWgx/pDEYqKbTfCJemWH4qr4IRygGKuR0oDsSENR+xh0LR10TQJd08zOnj6MgwrL4nifUo6V8eGcIiTq2IjsvCrLKW8LWRz+YG2bubkVqY8LRl7SWf2HIMGWleyMqCD6yhpBonLm3Ns/IDvToTh2tTr9E+V9Vsnmkiepu6mKRVwL2SvZPqvcg8z0WYn1Ub138bl6IAQUuf2YRedUk47ZX9QBRLAq/ihtm9WwNYLCFYs/CQm2rwsIDoXN6kKiertDr1Z83kIxZDXZHcEJgUAl5LaiHjJnUQ85rKiLaoBiX7l27V67Mr9OILgV4inRIHvSIIOBhf6QEnMKD8zlhZ7JnO8sP4k5my+Pm1x3C3L0wvETeeaUROJBHZONq1Ox0wve/BHadp3cMipk+wcgUTeTEAVRS2+/3eHUvTcEFDu9BrtDy2Z+JVjSpGZ2GRa+P4JJFWbozWjbnZ7XwN4QBR+uSLRRx9QXTewNgcRMIFGYoTeEBBs2tSRUdeC1GQnNaQwIFS1q3R2a1EvUM0I/Q4I3zdm2Yi/V3UJHaUGmSSTyzinsWo0UXTXFJaCgBWttdNFrk0uCLwrfbKuOuWtySfBFsWEtReLUnOAICn2pGYmyVvmsGfXyWvBR9uU+bpWHnhrJLw71i1cD6pIvXEs0D+pdZVowZCYqCOM7AWh3e64kh72m3xtknjlV5b0zt6WscTT4uf/P/p9ygQXEN6v03mk3C72cZqWzUoo2efNE9/XbBUcEgZr5noX3rABDb0jH1F/KLHHypETlRwAFGizs4XBPcvKcIqKtISSUYQllAv9QrkWsKePNCv5a5tovfHtUjMQjoZ8hEpsyS2IqIWFxIWz8dflzlEcm4yO7ioHbgRWcU/RVQxBgE5ymSvUwBue2SaK53isBBL7OG8p/EXqT/syzyNCuV2CQH8wppPug3WGeS2wO4saQWGJ6kv/+mSes+aC0zO5gdgkZCtakvAjoz9jfdg6uSd6VlmnbrIyCmUAivlvyaO942Tokyhz33CIxeIr9bQ1yILGpHomH+IRm5dSFqkYCrZTq+MTd8NKcAaC9/AwTU15wZUgY8wJRqvfnVI3d4eZkmGjww7es85OIaK8ACZWMzHbZHb/zMUz0M1QhFYjdrQIJw2Xt0rbzHX0hSUweSTVI2C1DIpcQReQgTfQNVYEEnlSHRCV8IpdJjmMzPdFKkNizir9qSGjn3YR2ntDUr817d5y54JIK/jeuTCs51wR8RZod/41nSt5BfjQn5bqeCn7CLht7q4yBIqL+eHr6gYSQjZme3OIa5EAC0bfh33/bb1n6JhyF5TCV88xJQuIBHTPjGBCRYdDehpkYcSR+5EAC/wx8WspITV8WAolqdcw6kEDOhUV6uAwS+GqmT9NNU7T7E5BAhnUlMKKoMBIIST3mqRukBiQesTsykDCWsYkXR8LYyn8/pUnqgE9UY3eU+QLg9kBBSTVFB7GZn2hhJGisQ2q8Dlr07g2s8FcND+dMSZWi/8QmNjUKIxF/gJ7mPUczliHaPinO6jltkLJXkpfiSPxf/AH/pKANmlXrtW0Un4iOH1wT07Q1gY8tQ+KYZpXT2ES84nxiMJf/XqfxiSotsErsjm0aX4/7rp+Mj3TMGz/mmsYNlX0aDcOtzj+hXGGRo5GysuVJza+BTMxN81kJ11pUDtwKX8dmmrA7Er5tRCSF5JRqkFEvO2Sq4JzCklhDxXI1nlN9Vsb1tE/nKmL8FXsJW5QkzjvQ6qKkWunaNp7mip/IM6cMJArqmBkeXWMTzsRb4Vv/xH8Ta4Ikz8AQdi//mUYAjZWWadsswyxH9If7sh5ugvNeeaY2SZyBGeIryLBE56IE7e3//MAZYSoiVLdeJAruDpbKzsRYyeCapwe/RdLgiSbORd94K/Iccgb7elaO7wTdCH08d1h57t3xgH+CDfM5txH5azSderbIQYBiwiRQphF9tv8e7vNmtSEnRanMP1GJFBVn/rkKpoPLIonFT7yF7x1hA+c+WkSW1rboIqVUyDaVYmrKRO6hBcu1eRuNqclkFHdLxBdOP0t1N+z2IaGn6lYfF0R3fz39tSqZ1Ieeq44uquDrJ6vUVNRH4jG54sUk5ncHiQJWufw5sKgr0ke6kTqb8ZGuqPdYmUCrB4sIs0obZLk5hSg+4r0TzLnk9nikUC98vdV47xILvWwEe+NrAu3kfdESbRu6NvSB5LUYdkuRyK1cVVSQUdvX1I8mtH5udlHgPftYtBXRtiX/d56E1tnJgZQmPimXCnnJk7Uo/5wqzEmSZZrXU9CsvTlTmdvkogAR2tovZ5tcFMJH01okTL8x7QrRQy1IVJXQWm/sqzgDEmZWmg5cU3KnP80T+mlVmAfybnGmhQaWZ05KiOLDdocAnS2b2R/UZYVFW7M5UxtimpxdlmBjzWbsMc9N7A80bX/uIo3Z9SsV9L3OLE7V8An+Y315EKMCcqOOnKlVyg5Rn9achgLvehHVamXHo/pE0tizal0UyLHMqnOmdi6aVbX5MfVa7Q9yZg+wsYa07UumULs2rQJRv7ZMoTUgobFjXVDQV+Uh0XYPier8ExJzZpN6Nshg+6BouzcnPdMJle0O+jihtXKsAQpEbL2+K+yU63qq9mK+GqCgW1bjZYMSEpXomJfmetVsExkuq4aNpc+pNiT6lV7VwBUqx2vmhoLqkYDrO6pz3Bi7aTJcqNV2h8yczc7mwTt+LoVMqhRt6XaHJr1eTUJR1OX4zUToZ57Ln7clczvFC8ZuL1+QaY5BZjaXe+XR0dOXXxZz7q53j3MLurHYh5Qqip+oWMeUuprMNh7jFlh1Y4HHtemYNSOhaezlkRvBMJ1M62HozSPBsTgtSmKB+MYoQql9dkei+fuuOBYI0YVfmFJq8wJfNdRNymT+MynmwTGMmVdV4OwDXv6Ccds5lh9j3kQlOcPsECbO8lCS0qd+1ZB3fO6MfJzSjsOAZr72GKXic2oWCUWZDverO1cyw4XM473bYebDlD7nq4YC6pjJtPN2PyaUQDqGCBFewwYhZDdx50rXrIRSqd2RR3F+XJ2NmjPWU3TPtffPi7EDoe+OM15s9ra7DpqzyigVmVODzDnWXDPNIGBserDm0c+1UMo9JxnFejdi1pa/fUf1Ufp0HbNx5veNxKd+1VCtG/gTKWkP3KpZ+dHA51JSQhSbYM7tphQh8ZW2/J+hbbeX0jcSaV81yNw2yZwfDf3M6toWSlk5U2sI32k5pS8pBspR0r7glv/Wtr+RqAaJtu/e5ii1nKM3KDvSUNQ+Bl1LB12TQNdyvK8WUYqQ+Epb/lvbrhsJ01SKjU9X9KlwTzLGlEqRMBkLvxuGrozJkRN1RxdprONv7a1rRdw2o7nEnNn6l6OunocdNpttfgfjq0QMKOw8tJdbL6Rk2puZuHk2r8DR5r9mv9wPc6b24LKe0L9zrevWDBPDMAgdb3Xx+7V5L9kc6voITsURRj1lhY2Z+A/RWr9LqSfq3aTjKaLU1ZYODMWg6mTe410VuCvrtutdSnOCqd2LNZfmdPerBna9jAqR3SFt+SW9i2PEGxtkCTU8YzfNc5iVmuV51i0l5quXo3YDD+GVTrDqXPdFjq8a5oaKbVOilFvHZHsILoVDOoiVwuiQgkRiI3oDFS18dzNPRSIP82PPlI5vKDEXQtcwH4o4YaavEhK52WwMiVvmcg8JviIgyul4ejkPFxwTssuDhEtUw2eCm5VF4heG5NEyJVOkCSUz37L8vQH3gFhNImFx9PFiKvgmsyl9nge9zEgkSM0VZl6RIGdmmhISZtTcNM2QEkgBM6QEv2pXMWCyGQIkmHROHNxKKJJG6uysEsdPrIkutI+Au51TNw8SmWKAcUoi66JgzswOMhfyga7tyVFwcOh4HvE97fFffAZ8wvN+c3LD0cg/hEh0tLXvCX7fWY9GowAV3T/uj25AqeuPfIv5y4ltwe61/PMzUneeNxqttYivQ2oLMgoHyc4TcXgISHSCbG/W8Dixz2Gogef5Z6GYeqeTJwbJrNfj0Z1OY3wiIUECRi1Qie7iFCiKJNrEB+kb5D0KzpgVawPn/QZdnOEQQdnRwcymBsaUc9ReT6VGwFoGbr8LSCi6sh9Q1OfvACoEXkDPdSjmPVbwdDYfkMH2mcIz9/yB7wMRzEopGfDOwcB6fNJ4r4QDg+HzQXb3SHXEgKMh7Tz+qvt93vcXTKu7ooOF+MRiaXCpQ9ArX+Pb6Kw8kE+inviq4Sb088Dfg3ObOsu0MFJF2AOiYpEsEHIM8QPeKT0WfheI+P+abIwgXQZ/d2glFjrk9FHEJ6UQLYGgEX/+nP/qBDdb0ImivFNRhYCKfTQw2BzkpMQFDgMkoL6WhsSfZ47DG+7ZDqEN7IuZSDqKVBwg0bmZ04c65omq6DlxgafDH4ieN/BUkXafjxFh53kHHPVVZ7sVXGCxGq8cX0JClZEwz1w0o8l2zwWSYQVIcG787PB/6UF5d8YQUjFerVaTaGAaB5jqtww9REJ3AIjnXyBlyRoa3yDxCltr/GsBqzVaE4W07RGFDOfxXmxpcHimCuvMcECPI4FnGuvZBvzNnzE0VOKJ5hlIwH1yIq/lO5cySyaQoK7OOvDiQToqMy47+nKcVYdjQxKiLUQCKC8szsS5UMEblkSCw0hszqF9VBIJjwZZF2NIjGFvCk2Hk4FMn8DUO9B1paJ/4fch+QAJE6li3cNNnGgnkOAj5/LpzJH5HSHBYhFnsCamGUjs+JLoiFzTvDaYJ5Dg88AzYH7MNfIgkbQGDnzBIy3GYTWLP0usWS5LsEgVw/nEgoHA4RWORMe8INGJIQHMOUCCqwZotYMCTEXsDvwbdu+cSkiYsvEg+MRIiVs4IRJTLFLSwyBhOfqmdsMnXCO6sHjuBHwiw+7I0idEAoUg6W/AK6E2pSLtnggoJECAARLQHCr/6uHvZ1OAHugTbI+DzNsi2a54R3DZsCjY0EHKG0uQbfBwvlu4ZoVuNSuQHbOLFWoyoSAE+oRFggQlfA2+GkLUwguAtczXCPqlwFXRJEhf3VtBRs3imhXwBNWZRvtiAhfV6Fjwjk6wPfmMIyT0u0gEPF4gwZQDV8c3T0coy+Uy0Hc+QuJMLynduT7hzy76BG9xybDMlsEy5UhsBBJjgQRfpEbQdc7lUSkdcw6CacwFRJdrhEdCZ7rYDHgNe1gHBi/k24dr4sg5pBWsVnXFINEsWuiMRe6FFCQEdJzoVcfcgKx6DeouMlYvFyTEzuGPZwz4qqEI1uX0TY0dxFYGRV0MUVF+l7Y7hrCO6ezVd4+OAR+c8Hnyx6puRznxWRl8n+RBgiuIaGfpU87b0Z4jwZExJhwIbTtLR4JPkWyV+XbLIiREanNEd7/f37cLsIbgkpMQCT5K5Lzrmi+GpIjn45nVeVmI3S2YjDHj9H9Dx1JIBCaYCg4KEPl4DDtlwaugO/CBOfPrmrizOzRzBXa6g/nOomeOxJSDaaxmG4eAJpVEwnSF5YcIF0oXW9Q30PVusCB9e2h3MFAU+HjEkGCInHOoGHN9j9MBR5fP9RfM6YN+VQYJTcgdFH27hMXm4GPahV92Gc7cjO0OHENCk5A4oyA6GVFbCMcTpJEGpdAA5WxuoAvHBP0CWF3gihjY7OqfeNnRMKIXkfE58E8gQEKbLi5DehGtXwcAAuB2gjmxMI05XnHZcYdjhqTSfWo9azkm3IqgaHPqaYHE2a4o/0k9doQ0+Rd0ApBt/0ZS1LhKUZGcjpeXGbxMunsPKJnib0KdiWUKyWzEpSizNsJO2B9iA3MX4CohZPcqS1Ewle0VHxF1jtNALLLTgpMjxmbNgq6nHUxi4TmQtL2sl59pL7777k1lLcR7d0cdFqCoT+HuJy3MpsurHBU9BP1C0GSW7/qHK6Xe9OS/e70ggYKwfkDf6XSCpOx9k3Gip+mleeTH5E8JHxOnxLSz63u6chU4h9H7yQI7PXQarF13zXoXSiW9/Cm+bdO8binttmtqNLXJzAQl/ZaS7KWQm19DnJnZTaUUNZdFrzQwXfhAvs87yp531PVBZnJ87aIUeWr6/f7FUwP1MPRT1COvRj929VjYXJea96TmXal5Rtd2UWr9WX5zlLQvuOXLUPqOqflGIh2JanOcVZl5rDlKmnRCnHKHcRiDk3r4Kp8QZ115nHFu20pKSoji1xIDZShFSHylLV+O0v8D6IhIddz+voAAAAAASUVORK5CYII=;imageBackground=#E1E6E3;" parent="EN6WmcxhhZj-_kziTeJi-53" vertex="1">
          <mxGeometry x="350" y="1.1300000000000008" width="110" height="78.87" as="geometry" />
        </mxCell>
        <mxCell id="EN6WmcxhhZj-_kziTeJi-56" value="" style="swimlane;startSize=0;fontColor=#ffffff;strokeColor=#000000;strokeWidth=1;fillColor=#6a00ff;" parent="1" vertex="1">
          <mxGeometry x="-1407.5" y="160" width="455" height="670" as="geometry" />
        </mxCell>
        <mxCell id="EN6WmcxhhZj-_kziTeJi-58" value="" style="shape=image;verticalLabelPosition=bottom;labelBackgroundColor=default;verticalAlign=top;aspect=fixed;imageAspect=0;image=https://catalogue.data.wa.gov.au/uploads/group/2016-01-27-053933.502564HorizonPLCMYK.jpg;" parent="EN6WmcxhhZj-_kziTeJi-56" vertex="1">
          <mxGeometry x="399.97" y="10" width="55.03" height="20" as="geometry" />
        </mxCell>
        <mxCell id="EN6WmcxhhZj-_kziTeJi-61" value="" style="swimlane;startSize=0;rounded=1;shadow=0;sketch=0;strokeColor=#6c8ebf;strokeWidth=1;fillColor=default;labelBackgroundColor=#EEE0E0;swimlaneFillColor=none;gradientColor=#EEE0E0;" parent="1" vertex="1">
          <mxGeometry x="-1500" y="-110" width="1480" height="1120" as="geometry" />
        </mxCell>
        <mxCell id="EN6WmcxhhZj-_kziTeJi-26" value="" style="shape=image;verticalLabelPosition=bottom;labelBackgroundColor=default;verticalAlign=top;aspect=fixed;imageAspect=0;image=data:image/png,iVBORw0KGgoAAAANSUhEUgAAALAAAAEeCAMAAAAdCG9GAAAAkFBMVEX///8jHyAAAAAgHB0dGBkbFhcIAAARCgxMSkofGhsXEhMUDhDv7u5RTk8GAADq6eoMAAWqqan09PTZ2dmfnp7j4+OAf392dXWYl5czMDHr6+spJSY6NzizsrLR0dHAv79DQEFYVleKiYlvbW6+vb1kYmPJycl8enuvrq6Qjo9gXl6dnJxAPT4tKSqmpaY1MjMbeUWzAAARP0lEQVR4nOVdaXfiuhIcJC/YBmLMmmEJYCDATcj//3fPLEkIqpZa3sicV1/unXMiu5ClVqur1frzh4nBS394WLw3GpPpcjSe9bjtHoJklnpC+KEjGxmkE/rZP9v9waN5EVgvRSc8U/0BxxfP/eTR5FT0Q+EqZK8IYjH6Zd3cF57at7eIRNp6NMlvbIOOnu6F8vjRPD+RisBI94TO868YFz03YtHNEIj+o9n++dMV5tHwDbF5NN+VsKCbwV881sKNLPk2GuH7Ixnb82003MnjGNuOh2sfTx/Ft5uLb2aRl4/h28vJN7MV+4cQjnjLBWS8fQDfDXu9UCH9+vm+5B4QJ0Sj2gm79AKXecBnxMA7/oSoeysy9ggmgSfa45feYNDbHtMO6SM7b/XyTYgBIcXz7nZd2B4oyuKlVsLjGLLw3fX9Xw7a+LcF9S4fMRydAk6lHfbnxLxGvjPYa6KL/3oQOeCvwzo9zTZiIJTh8ImWi9YYUZ8T9Bd1sNjRDZ7QqPA0DUpGF9g0X7sUbMFPdOvzgQ6qqQqkvskrWMhFPWwzgO4ymdUEDIraXCDgV5oXrrGvjqK6AhWzjtpZM1MjsDa6dRm2ldpZjOG4Ce8byUn1XC+vVuYcZxFA36V6rme8KctAfDS3GqhjQjxVT/YE8GbOfAfNanKKwZs5Ub5nxbDVZdcAYU7sV3VAHkiY48f8KsJ/Gc2av4kwZ/b46hiuyYdvqG8mXeFvgKWONVdLgDoYo5W51Tzn0C8BI8VVlM/mVnt1Qfeq53pGX90yMz7uRFkfnWYNZE8A24doaGoERoS5UUloIQfeNBzb6i6lY/RJy4K6yBqje2hTV5eRgA6xyaYG6m+UjZrowvHYkJFuUKBgMscWlgV10co2PJptHVRv6oxVoTHRiEgrtUd8g/pGBNw9NE6aIZ5FKfzruFbdeQmjvoEAW6X5BH2OHOtyMu8OD9NICNF5b47Gaysbg6bdmcXznRvU2xDiuW835eb7qRBx5F6sTeCEvhDeaM3/0WAduHayu/+aTIPjQiib+xwdPNiHwlcDoDIUYsN1qWlVUWa//fmQjjaLrEtQWPaMmK8tzg8CWaULQtEgotL3UF22W9JuGIYk2fMfcOn22nTy0xlBJ+LFbRlpPjTYm6NXA93zrxcfnB1PEWXRT3l0tzG2MPcIBMfxG1JSnfn5zKDakJ+eEz8zokgLygKYwHPTkoVNjzgM4S+BWguDL0tTfAos+wOtWvfPtMqo+nowyw4NhM7K4AebTeWAmWL347EsH2KQpy8YuYcD32x17h7K6t+Wl2u0MUZF65lneK4ImJr4u/V4uDJm2PeNhT2OAp6LtbHqhRtITpSvy1iMrk9jqjDH/GuSw0kSeGqyZojPicCdgLcHTHgsr2oWGj2LkLV6nrGwncg/wAweHH2dhctczpQtwODchstzIu+STuTTk9JZcN/zRrmtoeisOBHvK0jnN/N9X2fzwdNT72XcFDjHpMGL/V7Q27+L+zjhyZ1PrdJ7/iM8iFC83jqRrWODmDlWeuXT8Sdj+d63jT5gGhIk/e+I/Re/i/8ogUKnbUn3T1cVTDO4HloRkiUc7lb5T09FCT+juRtOiS0rDNFYxZSKEoab25COgvXR30ev9RFegb2tdoOCw3b1EQZhWcNS0AYzz0IALEgYrcoGnxFlVVpEcgsSBvlagUmh6oM2H3URHqnf12xVwdLID4QVJPyuvFs6xkYg/4lv2AoSVsejz9lZKq08tkBVjDBKs2H0lapq8TPMihEG4hjHpA4V4x2yl45ihNcK4YCTer5T7ITDTokrRli1aiEnbKh+mID93oKEFdmd9W1VASNY1EP4qBBmCeiqxyRrIgyGBOeEitrDkp3ZUIywmu7IyopW56pzqIewOntkzGimLnUuM8SvpMdbEgbuOyf2pGaM8921ux4O7LJkQOoIJwsELOiM7NXsdbPh9L5tIGTa5YusquPFGMRAHmJ48IPxhxDoTKAMPREOmVsAoGGbc3ZzNEq6U6StfpOORLTi9DPwFI07SjDwpd4D+TsU5oC59MXS7HjlSQ1Sczr1GeN/R4J52NIVCyNlQNgQ3UNnf3WHcFakXg/giKW2uxKYJODpbBQMJtO2cO1ZBvddoXn7mgqW0UJOCx3jJFMOk0MOcSpuUOMiJZ9GMm41UKC4Q4yIrZdLu5VYAJxLzccivsvcg4Ftwkbsc+mg5we21V244WneGxj8K9yGcEkPBaST0L17/dPUJIQ7SiGbY0R8EjjlkmleKe2M4OdmuMsRlkPR/Frkk+0rWfcGrjTJJG/qwRXyRhIl4tIqHE+IxSZNl4HQ2H4U9WkFhZSpy3M/Gb/YWPKG44ah5tQ6Ft+TSXG+Xx7VKPfchXBQHHBacDxccTpM0WsUmgvgocCaLAsUariF9FrjcrsXB5PzVUZBkKLk7oXpWsUKS/Dg+vl+SbgAE67sjwiQrYTjPN0CK/Isy5lwGjjncZhj4LkS8NVI7VcEn4q7XnQn4X1c5rl1H0eoRpNpQGQbocnrbv731LTVW++bomPHWX77ZUSZBwodGAIZaidDtqcf35nBZNa0Wcii8MbHmMf8lhLnj2iTW6T4gIJPb8POmbtLCmI7GZljhFMc1MPUN23oGE3vjfViVz1/vmNtcKU4YJlL18FUmwv6jPEomuAobDIyjigpJlSYRpOVbcrJ60UGfykQ/+GWg422lx0hyT09VSvn9CONoajkWdtTMXEG5Ex5KIhuDnzR1Ail4ODfFSzh8ZnuY2KOf2O9yYz6Tzc4iDri494o/YSqq37yZYX6koCKZ8kG4wHz8eFcUsrzvM7pv2/DmSF0TJ6EYOSUnkHOWV40N0PS26533e7sZc7JgoMnpjJEbBGPWtdZ6qE91FOol+/Z4T+CsuOsk+e2oD6oudrIN9Bp0hMqKfmjCrqXz2lVJAscbj6BJdDaIiUii3ZlyHAXV1KST0Kjxj1D8gmU5tWo5AAuscz5xIJKgZgJVumSPBBW2LprwJnoRiU1itYwiZNTReAn8LSrYNb14Yvsj9cjnaiSgnx4ttgfr8dzoQIzkUJfK0elnghXECyd8AGrCfa10oEOmO9BBrShJ5GjY7A/Ub4hXpT1JUF65e8mjIrxVUG4WRZh7JOUT3iJx7B94Rt8rL98j1itCpezY97L+uUGvOIvaV9tivBJyub7Zw/niq2zRjlRFZQP3MGghH11UFSVtJIqo9hpsf+UoCppo5IaRU/leN7EPsBj1lywAX6Ty05yvIDYylZRkQbWHLYuBfmBgxtVVMAEKWUn2BxUImdCJXXByDouNmvHFHcw4+xDDhCEbSwSdb9ENUWVyMAYe5tERaoMmYd5oeZBfzLmzjvqwHJVleIowsE7r/2IiuBzD+IMXrr74ShNR6v+usfwlvBeIUPImuQaLZZRymI+bp/C734UhmEUxdn/v7+aCilRdiKb5QzGWu1YLLTDaj70VN06iIRo678NYZQyRNSx2C+86rVFICp+YfYhcGwgM+AdMdT8VHLanQ4eay1T0jRWlKFqOXRDfV2TSKT0bmVC65la5WrGKUERReA3b9/NGmpIZ8xqujgbyDHhcs0XvEQCqb6YTnj9gdildj70KD6/MOyrAZx1k18A5zO54/OX+tz8LfL70obi0i4W7eNNuO1pPRJW9Xqc20zh/2wyPDzilrPU9JvdzERON8P9fpU2fUoj1kAsP1+MSw3SL/ahF5ZwqpYFYeRnFt7JlX8Vdi7jcWlbu0tiF6r6tDUpTi522z5zjWA8KjubT4X/PjjkeYvE4eqPnFWOACjrHNiP/Us7D4WZW6XlBnbynFLQwoVaicG2sZGtE1uLTC8W8E0x2gWPDe/kPCRFcv8RsJSc9+6/W/jLz2eVNyca5HarOOP4a+/69Ma3uNL1Yy/z4jUeAlFr2pw0qscPZ5I4QKKw9UW42R933fHrVND+HyHFbXNU37t56E9fZR6avRwp3JscqmRGVhyl4g4DmTsVPlBvqTKWmfPD+y1Jb0l8GFLtzDvBoxA80eDjQ/fxJYZt6POK7Fp2t6Dq2rUWmrJlRN5LsoArOK3wMGvZ3cKPyYgyeUaC8BFOWCLGuuyLWUzmNyLo69pRp1B0EnwTLJV6xWTPP4wRioMh1AnzZ/VRfnQwSZ9kkOxNN6RfEImDOVkBlUXSZ6sgz8YobnXfyVDHFa4QnJPYYHsgTZoj+CqMGgbzoU8egjjFlDY88QbkvcSm3oKXV3BeNh8vhDo4so3oZPjCFWZB9of53aheFFcWmO/u0rz88dYm10TtLEbNEXRbDV+NuxOb7ERvcNskJ1VSLfLg8+8duPuodrk8OW/2UVMwQn5MvxBh1UiwVHO12o7F5YKFCKs6KUtpVX+nw5e2ChFWpX6Wblmkzk8xwg+opPR/1sOljeGgpjEM6q1xNMDHWYmcdlhdm+uywyDthZO3pZYdqWulQ76EedaBRK0O35coRli9M5XhrYFsTou85mKE1fqKDc/0dVHek0U+QzHCIAImTfcEgg62qZpWjDDaPRhukkOphjanLIoRRoPY4BKrd2rapeYXJPwfihnoNjyo2IXVzXcFCcMERNkhGW9QHMcqSasgYXwHF3mqtw3jTlbJf0UJY+ESl4uaO1DSsUuvLLQJPYE42xtP7qfeE5WbYJEF93c2Un5t3/IwDSVRSTE53nzqlw0lPrpcXzg5LkRHeYgbC2dlxXlKqUoyFpPRf7v17Lhq2msc9+ilAtcSO4spC4s0Y51uKUPfE5040ihlhtjhFYOlXh12xIRPWXuTnAnG2OEJycisHUjxxh4YhkioFpxM0BmvLKPDvlWmgJjNuUiOuvYRPG3C7ORcVX5OcMxbwEHDYsQBgY7ohHxZJIx7nGwFUV0VyVssck08s0WbWctegnm+Nk+JNPOGNY9E3mGGDLBmqAGj7km+DCvBqeOdgV3k5wLHPB7oy00NjJnuKjMr4QL/wzjfEl3FYT1jZsUEfvlDyflsSDTlMmZ6yS0qw+AOvsfogtzGPYO74BHOnM3IrLKGghOTLXSJHPNmyGvH6CmbBewLmhp3x4liz4t9XT1Nm63TUZJj2fFEylvu6dS1UIjm8Libdfcbn7632K4+wzYFFdBP5c/fjtwtGJUNH4n0xnz39h71PW3LEGxXb6eaflHoum4YZW68CNMd/2wxscQF4vX+Ux8J31NbSJxAb90fjjaHQ/o63lkpwsQdZw3/HXUbkWldQR0XGtjDJk9iwL+2uM6qOOD5enpDgc8pVnMmDQMRiDWLI/SSLEsaFQGyafrFCy2LldR7wkDn1AwrAVhnbMqIFQSobm9SIuDFc/YVYfIBxHBlaGoEoiMxt5BdUYAhHBudGdDFrCuEygC6D8687qgJUxWUT8JQrTDn5LeqYNdmidW+4shM6Aqh0qsRYahGgrUGAMI1mQnwZo4jowpq1ZxwV5Hz26ojKUdJmFzIl4UBClQ8kPA/18O/ewyrEf1fbiXKs8NVlGwF+OdWutJ8Cf6dv8Xwz3lr4N3SNTUCu5Ta/GEk/P3qHUdJe7oa9/n/3K75n4tL/HuRH4IB8Y13OLZWUTUiDFxa0X/+rdFLm/hwB8eHbSvLFUWD0OjuI/AxVUCjPiN8gVbjaK+Os5PGEWk0jhwB+GJYaPKEziqS56MLJr86uKYd/jdq0+lKQxEl1KnmeggDqHJvnA6uaavxEwnrrC3kW35dfRaqzpcoH/lKj3g1emn3wF6CgW/NS9xP2GcpUepjXXixzVur1UdDGDgWKXFSc/NybbCo1OPLmj0eArw72TLfs644hBFJyskf/qgpVslCr61PMQtEUMXVR0XQ24iYMBgyElPri0ZqQKs/FZ7iAzu+8Ie/Y64BDLppdK0I64ahfyoJ2x7/pqGL0JrP+qvhKH1djXfbWnfGP/A/hfYIwAMwkj0AAAAASUVORK5CYII=;imageBackground=#EEE0E0;" parent="EN6WmcxhhZj-_kziTeJi-61" vertex="1">
          <mxGeometry x="1034.6100000000001" y="520" width="30.77" height="50" as="geometry" />
        </mxCell>
        <mxCell id="EN6WmcxhhZj-_kziTeJi-14" value="Instances" style="sketch=0;outlineConnect=0;fontColor=#232F3E;gradientColor=none;fillColor=#D45B07;strokeColor=none;dashed=0;verticalLabelPosition=bottom;verticalAlign=top;align=center;html=1;fontSize=12;fontStyle=0;aspect=fixed;pointerEvents=1;shape=mxgraph.aws4.instances;" parent="EN6WmcxhhZj-_kziTeJi-61" vertex="1">
          <mxGeometry x="295" y="770" width="40" height="40" as="geometry" />
        </mxCell>
        <mxCell id="EN6WmcxhhZj-_kziTeJi-8" value="Instances" style="sketch=0;outlineConnect=0;fontColor=#232F3E;gradientColor=none;fillColor=#D45B07;strokeColor=none;dashed=0;verticalLabelPosition=bottom;verticalAlign=top;align=center;html=1;fontSize=12;fontStyle=0;aspect=fixed;pointerEvents=1;shape=mxgraph.aws4.instances;" parent="EN6WmcxhhZj-_kziTeJi-61" vertex="1">
          <mxGeometry x="290" y="430" width="40" height="40" as="geometry" />
        </mxCell>
        <mxCell id="hKvrF-xkaDe6lDRu48L1-6" value="Network Flow" style="swimlane;startSize=20;horizontal=1;childLayout=flowLayout;flowOrientation=north;resizable=0;interRankCellSpacing=50;containerType=tree;fontSize=12;flipV=0;flipH=1;rounded=0;" vertex="1" parent="1">
          <mxGeometry x="-630" y="1170" width="350" height="280" as="geometry" />
        </mxCell>
        <mxCell id="hKvrF-xkaDe6lDRu48L1-16" value="" style="edgeStyle=orthogonalEdgeStyle;rounded=1;orthogonalLoop=1;jettySize=auto;html=1;orthogonal=1;fillColor=#f8cecc;strokeColor=#0000FF;endArrow=classicThin;endFill=1;noEdgeStyle=1;startArrow=none;startFill=0;" edge="1" parent="hKvrF-xkaDe6lDRu48L1-6" source="hKvrF-xkaDe6lDRu48L1-7" target="hKvrF-xkaDe6lDRu48L1-15">
          <mxGeometry relative="1" as="geometry">
            <Array as="points">
              <mxPoint x="141.25" y="92" />
              <mxPoint x="30" y="105" />
              <mxPoint x="30" y="195" />
              <mxPoint x="47.5" y="208" />
            </Array>
          </mxGeometry>
        </mxCell>
        <mxCell id="hKvrF-xkaDe6lDRu48L1-46" value="existing flow" style="edgeStyle=orthogonalEdgeStyle;rounded=1;orthogonalLoop=1;jettySize=auto;html=1;entryX=0.5;entryY=0;entryDx=0;entryDy=0;strokeColor=#009900;startArrow=classic;startFill=1;endArrow=classic;endFill=1;noEdgeStyle=1;orthogonal=1;" edge="1" parent="hKvrF-xkaDe6lDRu48L1-6" source="hKvrF-xkaDe6lDRu48L1-7" target="hKvrF-xkaDe6lDRu48L1-45">
          <mxGeometry relative="1" as="geometry">
            <Array as="points">
              <mxPoint x="186.25" y="94" />
              <mxPoint x="240" y="118" />
            </Array>
          </mxGeometry>
        </mxCell>
        <mxCell id="hKvrF-xkaDe6lDRu48L1-50" style="edgeStyle=orthogonalEdgeStyle;orthogonalLoop=1;jettySize=auto;html=1;strokeColor=#0000FF;startArrow=none;startFill=0;endArrow=classicThin;endFill=1;noEdgeStyle=1;orthogonal=1;entryX=0.75;entryY=0;entryDx=0;entryDy=0;rounded=1;" edge="1" parent="hKvrF-xkaDe6lDRu48L1-6" source="hKvrF-xkaDe6lDRu48L1-7" target="hKvrF-xkaDe6lDRu48L1-44">
          <mxGeometry relative="1" as="geometry">
            <mxPoint x="2360" y="2940" as="targetPoint" />
            <Array as="points">
              <mxPoint x="208.75" y="92" />
              <mxPoint x="320" y="105" />
              <mxPoint x="320" y="195" />
              <mxPoint x="302.5" y="208" />
            </Array>
          </mxGeometry>
        </mxCell>
        <mxCell id="hKvrF-xkaDe6lDRu48L1-7" value="HP On Premise Environment" style="whiteSpace=wrap;html=1;fillColor=#d5e8d4;strokeColor=#82b366;" vertex="1" parent="hKvrF-xkaDe6lDRu48L1-6">
          <mxGeometry x="125" y="40" width="100" height="40" as="geometry" />
        </mxCell>
        <mxCell id="hKvrF-xkaDe6lDRu48L1-17" value="Routing through HP TGW" style="edgeStyle=orthogonalEdgeStyle;rounded=0;orthogonalLoop=1;jettySize=auto;html=1;noEdgeStyle=1;orthogonal=1;fillColor=#d5e8d4;strokeColor=#0000FF;" edge="1" parent="hKvrF-xkaDe6lDRu48L1-6" source="hKvrF-xkaDe6lDRu48L1-8" target="hKvrF-xkaDe6lDRu48L1-15">
          <mxGeometry relative="1" as="geometry">
            <Array as="points">
              <mxPoint x="110" y="182" />
              <mxPoint x="92.5" y="208" />
            </Array>
          </mxGeometry>
        </mxCell>
        <mxCell id="hKvrF-xkaDe6lDRu48L1-8" value="HP Non -Production VPC" style="whiteSpace=wrap;html=1;fillColor=#fff2cc;strokeColor=#d6b656;" vertex="1" parent="hKvrF-xkaDe6lDRu48L1-6">
          <mxGeometry x="60" y="130" width="100" height="40" as="geometry" />
        </mxCell>
        <mxCell id="hKvrF-xkaDe6lDRu48L1-9" value="existing flow" style="html=1;rounded=1;curved=0;sourcePerimeterSpacing=0;targetPerimeterSpacing=0;startSize=6;endSize=6;noEdgeStyle=1;orthogonal=1;startArrow=classic;startFill=1;strokeColor=#009900;" edge="1" parent="hKvrF-xkaDe6lDRu48L1-6" source="hKvrF-xkaDe6lDRu48L1-7" target="hKvrF-xkaDe6lDRu48L1-8">
          <mxGeometry relative="1" as="geometry">
            <Array as="points">
              <mxPoint x="163.75" y="94" />
              <mxPoint x="110" y="118" />
            </Array>
          </mxGeometry>
        </mxCell>
        <mxCell id="hKvrF-xkaDe6lDRu48L1-15" value="Confluent Non Prod VPC" style="whiteSpace=wrap;html=1;fillColor=#fff2cc;strokeColor=#d6b656;" vertex="1" parent="hKvrF-xkaDe6lDRu48L1-6">
          <mxGeometry x="20" y="220" width="100" height="40" as="geometry" />
        </mxCell>
        <mxCell id="hKvrF-xkaDe6lDRu48L1-47" style="edgeStyle=orthogonalEdgeStyle;rounded=1;orthogonalLoop=1;jettySize=auto;html=1;entryX=0.5;entryY=0;entryDx=0;entryDy=0;strokeColor=#0000CC;startArrow=none;startFill=0;endArrow=classic;endFill=1;noEdgeStyle=1;orthogonal=1;" edge="1" parent="hKvrF-xkaDe6lDRu48L1-6" source="hKvrF-xkaDe6lDRu48L1-45" target="hKvrF-xkaDe6lDRu48L1-44">
          <mxGeometry relative="1" as="geometry">
            <Array as="points">
              <mxPoint x="240" y="182" />
              <mxPoint x="257.5" y="208" />
            </Array>
          </mxGeometry>
        </mxCell>
        <mxCell id="hKvrF-xkaDe6lDRu48L1-45" value="HP - Production VPC" style="whiteSpace=wrap;html=1;fillColor=#e1d5e7;strokeColor=#9673a6;" vertex="1" parent="hKvrF-xkaDe6lDRu48L1-6">
          <mxGeometry x="190" y="130" width="100" height="40" as="geometry" />
        </mxCell>
        <mxCell id="hKvrF-xkaDe6lDRu48L1-44" value="Confluent Prod VPC" style="whiteSpace=wrap;html=1;fillColor=#e1d5e7;strokeColor=#9673a6;" vertex="1" parent="hKvrF-xkaDe6lDRu48L1-6">
          <mxGeometry x="230" y="220" width="100" height="40" as="geometry" />
        </mxCell>
      </root>
    </mxGraphModel>
  </diagram>
</mxfile>
